<svg xmlns="http://www.w3.org/2000/svg" viewBox="0 0 260 260" role="img" aria-labelledby="title">
  <title id="title">Yara</title>
  <rect x="6" y="6" width="248" height="248" rx="22" fill="#084a86"/>
  <path d="M86 56 C68 80 62 112 75 143 L102 143 C88 116 91 84 111 56 Z" fill="#ffffff"/>
  <path d="M126 56 C108 80 102 112 115 143 L142 143 C128 116 131 84 151 56 Z" fill="#ffffff"/>
  <path d="M166 56 C148 80 142 112 155 143 L182 143 C168 116 171 84 191 56 Z" fill="#ffffff"/>
  <path d="M47 140 C48 153 58 154 65 156 C75 159 75 172 69 185 C58 209 70 225 93 225 L180 225 C203 225 215 209 204 185 C198 172 198 159 209 156 C216 154 224 151 225 140 L207 140 C197 161 183 176 162 181 C140 187 119 187 96 181 C75 176 60 161 52 140 Z" fill="#ffffff"/>
  <text x="42" y="246" font-family="Arial Black, Arial, Helvetica, sans-serif" font-size="55" font-weight="900" fill="#ffffff">YARA</text>
</svg>
